<svg xmlns="http://www.w3.org/2000/svg" xmlns:xlink="http://www.w3.org/1999/xlink" width="199.722" height="199.722" viewBox="0 0 199.722 199.722">
  <defs>
    <radialGradient id="radial-gradient" cx="0.5" cy="0.5" r="0.5" gradientUnits="objectBoundingBox">
      <stop offset="0" stop-color="#ff8a57"/>
      <stop offset="0.519" stop-color="#fe8857"/>
      <stop offset="0.706" stop-color="#fa8155"/>
      <stop offset="0.839" stop-color="#f27652"/>
      <stop offset="0.946" stop-color="#e7654e"/>
      <stop offset="1" stop-color="#e0594b"/>
    </radialGradient>
    <filter id="Ellipse_90" x="0" y="0" width="199.722" height="199.722" filterUnits="userSpaceOnUse">
      <feOffset dy="7" input="SourceAlpha"/>
      <feGaussianBlur stdDeviation="14" result="blur"/>
      <feFlood flood-opacity="0.161"/>
      <feComposite operator="in" in2="blur"/>
      <feComposite in="SourceGraphic"/>
    </filter>
    <radialGradient id="radial-gradient-2" cx="0.5" cy="0.5" r="0.48" gradientTransform="translate(-0.045) scale(1.09 1)" gradientUnits="objectBoundingBox">
      <stop offset="0" stop-color="#fdc04e"/>
      <stop offset="0.475" stop-color="#fbbe4d"/>
      <stop offset="0.646" stop-color="#f4b849"/>
      <stop offset="0.768" stop-color="#e9ae41"/>
      <stop offset="0.867" stop-color="#d89f36"/>
      <stop offset="0.951" stop-color="#c28b29"/>
      <stop offset="1" stop-color="#b17c1e"/>
    </radialGradient>
    <radialGradient id="radial-gradient-3" cx="0.5" cy="0.5" r="0.776" gradientTransform="translate(0.244) scale(0.512 1)" xlink:href="#radial-gradient-2"/>
    <radialGradient id="radial-gradient-4" cx="0.5" cy="0.5" r="0.644" gradientTransform="translate(0.172) scale(0.656 1)" xlink:href="#radial-gradient-2"/>
    <radialGradient id="radial-gradient-5" cx="0.5" cy="0.5" r="1.037" gradientTransform="translate(0.319) scale(0.363 1)" xlink:href="#radial-gradient-2"/>
    <radialGradient id="radial-gradient-6" cx="0.5" cy="0.5" fx="0.55136638879776" fy="0.21550002694129944" r="0.501" gradientTransform="matrix(1.047, 0.09, -0.094, 0.988, 0.024, -0.039)" gradientUnits="objectBoundingBox">
      <stop offset="0.354" stop-color="#ff8a57"/>
      <stop offset="0.528" stop-color="#fc8556"/>
      <stop offset="0.732" stop-color="#f37752"/>
      <stop offset="0.95" stop-color="#e45f4d"/>
      <stop offset="1" stop-color="#e0594b"/>
    </radialGradient>
    <radialGradient id="radial-gradient-7" cx="0.5" cy="0.5" fx="0.5000154376029968" fy="0.5000550150871277" r="0.406" gradientTransform="translate(-0.387) scale(1.774 1)" xlink:href="#radial-gradient-6"/>
    <radialGradient id="radial-gradient-8" cx="0.5" cy="0.5" fx="0.4999822676181793" fy="0.4999781548976898" r="0.399" gradientTransform="translate(-0.454) scale(1.907 1)" xlink:href="#radial-gradient-6"/>
    <linearGradient id="linear-gradient" x1="0.281" y1="1.109" x2="0.361" y2="-0.765" gradientUnits="objectBoundingBox">
      <stop offset="0.232" stop-color="#231004"/>
      <stop offset="0.73" stop-color="#42210b"/>
    </linearGradient>
    <linearGradient id="linear-gradient-2" x1="-0.219" y1="1.11" x2="-0.139" y2="-0.764" xlink:href="#linear-gradient"/>
  </defs>
  <g id="Group_168" data-name="Group 168" transform="translate(766.62 276.115)">
    <g id="მიღწევა" transform="translate(-739 -272)">
      <path id="Path_703" data-name="Path 703" d="M237.315,233.508s1.377,2.005,23.03-3.236a202.139,202.139,0,0,0,39.318-14.445,42.468,42.468,0,0,0,7.845-5.469c3.3-2.825-19.224-4.42-19.36-4.329s-38.491,16.5-38.491,16.5-13.35,1.732-13.35,3.919-1.927,1.366-1.147,3.418A13.794,13.794,0,0,0,237.315,233.508Z" transform="translate(-214.308 -178.188)" fill="#774d0a"/>
      <g transform="matrix(1, 0, 0, 1, -27.62, -4.11)" filter="url(#Ellipse_90)">
        <circle id="Ellipse_90-2" data-name="Ellipse 90" cx="57.861" cy="57.861" r="57.861" transform="translate(42 35)" fill="url(#radial-gradient)"/>
      </g>
      <g id="Group_150" data-name="Group 150" transform="translate(8.983 0)">
        <g id="Group_149" data-name="Group 149" transform="translate(0 0)">
          <path id="Path_704" data-name="Path 704" d="M507.41,35.23s-4.914,9.738-9.645,12.494-7.165,1.01-7.165,1.01l8.772,6.843s9.645-10.886,9.874-12.263S507.41,35.23,507.41,35.23Z" transform="translate(-440.783 -32.873)" fill="url(#radial-gradient-2)"/>
          <path id="Path_705" data-name="Path 705" d="M232.52,138.336s11.193,2.872,16.316,1.064,5.366-4.769,5.366-4.769l-.459,11.029s-14.426.3-15.616-.41S232.52,138.336,232.52,138.336Z" transform="translate(-221.203 -117.444)" fill="url(#radial-gradient-3)"/>
          <path id="Path_706" data-name="Path 706" d="M156.66,57.647h0a.449.449,0,0,0,.173.355c1.3,1.008,9.44,7.544,9.943,12.744.548,5.651,5.833,4.374,5.833,4.374s-5.1-.911-.912-4.648S195.94,59.354,195.94,59.354s18.865-7.2,28.162-8.293a54.376,54.376,0,0,1,14.622-.034.849.849,0,0,1,.379.166,1.041,1.041,0,0,1,.173,1.69s1.99-1.261,2.369-2.309-1.185-2.369-1.261-2.415a2.436,2.436,0,0,1-.774-2.126c.2-1.229,1.291-13.656,1.291-13.747,0-.073.231-2.039.325-2.833a.672.672,0,0,0-.277-.635c-.312-.213-.833-.354-1.477.309-1.064,1.093-3.4,3.312-3.4,3.312s-2.764,2.309-4.86,1.732-3.371-3.342-3.371-3.524c0-.163-2.068-7.153-2.524-8.694a1.185,1.185,0,0,0-.385-.588c-.458-.371-1.338-.774-1.86.988-.73,2.46-2.673,12.971-6.865,14.248s-11.393-3.371-11.393-3.371-3.281-2.612-4.648-4.01a91.326,91.326,0,0,1-5.814-7.331c-.641-.992-1.55-2.491-2.46-2.46-.894.03-1.843.465-2.025,2.166S188.771,37.3,188.771,37.3a9.474,9.474,0,0,1-9.63,7.716c-.182,0-3.919-.152-9.236-3.646-3.322-2.184-4.532-1.641-4.971-.928a1.447,1.447,0,0,0-.081,1.316c.882,2.111,4.744,11.948.707,13.222a22.409,22.409,0,0,1-7.128.941A1.729,1.729,0,0,0,156.66,57.647Z" transform="translate(-156.66 -19.427)" fill="url(#radial-gradient-4)"/>
        </g>
        <path id="Path_707" data-name="Path 707" d="M300.664,219.036c1.044-1.28-.549-1.827-.549-1.827a32.9,32.9,0,0,0-5.248-.43,64.725,64.725,0,0,0-11.321.768c-4.865.58-12.127,3.273-15.6,4.241s-18.764,6.871-18.764,6.871l-9.868,4.3s-5.491,2.259-7.031,4.78,2.153,3.183,2.153,3.183a6.915,6.915,0,0,1-2.4,0s-2.781-.476-2.66-2.449,6.952-6.372,6.952-6.372,24.287-12.739,45.1-16.868c.192-.039.385-.067.58-.088,1.531-.166,8.62-.9,13.282-.846,5.172.064,7.581,1.753,7.581,1.753s.585.261-.257,1.347A6.3,6.3,0,0,1,300.664,219.036Z" transform="translate(-218.527 -185.227)" fill="url(#radial-gradient-5)"/>
      </g>
      <path id="Path_708" data-name="Path 708" d="M459.488,769.079c2.468-7.023-3.182-1.4-12.759,1.341a51.151,51.151,0,0,1-12.773,1.518c-16.034.174-31.76-13.646-28.505-3.882,2.675,8.027,13.772,12.219,29.766,12.045S457.524,774.672,459.488,769.079Z" transform="translate(-358.986 -653.403)" fill="#0d0f0c"/>
      <g id="Group_151" data-name="Group 151" transform="translate(0 82.21)">
        <path id="Path_709" data-name="Path 709" d="M100.089,607.086l-3.531-18.833s-1.1-5.468,3.531-6.531,5.468,4.595,5.468,4.595l2.506,11.315s.531,2.81,1.405,2.734c0,0,.254,7.049.531,8.9s1.595,4,2.557,4.531,1.214,1.189,3.568,1.392a5.576,5.576,0,0,0,3.721-.861l1.29-1.8s1.519,3.368,5.948,1.874,3.771-6.91,3.771-7.037.152-10.251.152-10.251-.38-1.494-.531-1.823.355-18.251.355-18.251-.127-6.354,4.784-6.531,4.886,5.922,4.886,5.922V610.5a3.418,3.418,0,0,0,3.949,3.469c3.974-.3,5.391-1.974,5.391-1.974s5.063-4.885,11.214-4.2,4.81,5.569,4.81,5.569a10.877,10.877,0,0,1-6.252,3.62c-4.455,1.063-11.669,10.63-11.669,10.63l-4.3,5.569s-7.088,8.226-17.212,10.023a23.666,23.666,0,0,1-16.832-2.936,17.781,17.781,0,0,1-8.226-11.618C99.773,620.577,99.6,619.338,100.089,607.086Z" transform="translate(-96.444 -570.505)" stroke="#e0594b" stroke-miterlimit="10" stroke-width="2" fill="url(#radial-gradient-6)"/>
        <path id="Path_710" data-name="Path 710" d="M184.364,733.2c-.16,0-3.348,1.048-3.107,5.282s.837,10.486.837,10.486.479,4.355,4.5,5.122,5.9-1.573,5.9-1.573.756-.524.8-2.3-1.276-4.8-1-7.662c0,0,.5-8.106-1.953-9.155s-5.9-.2-5.9-.2" transform="translate(-168.593 -708.651)" stroke="#e0594b" stroke-miterlimit="10" stroke-width="2" fill="url(#radial-gradient-7)"/>
        <path id="Path_711" data-name="Path 711" d="M248.607,719.575c-.033-.08,1.3-4.6,7.379-4.3s4.965,10.264,4.965,10.264-.11,7.822-.139,8.072a6.043,6.043,0,0,1-4.548,5.131,5.412,5.412,0,0,1-6.075-2.358s-.083-5.354-.8-7.074-.471-7.434-.471-7.434A4.568,4.568,0,0,0,248.607,719.575Z" transform="translate(-225.906 -693.666)" stroke="#e0594b" stroke-miterlimit="10" stroke-width="2" fill="url(#radial-gradient-8)"/>
      </g>
      <g id="Group_152" data-name="Group 152" transform="translate(35.448 71.643)">
        <path id="Path_712" data-name="Path 712" d="M363.146,509.5c1.265,3.75-5.269-5.722-14.471-5.751-8.029-.025-15.553,9.721-14.52,5.858,1.156-4.318,5.078-9.5,14.183-9.9A14.506,14.506,0,0,1,363.146,509.5Z" transform="translate(-334.06 -499.691)" fill="url(#linear-gradient)"/>
        <path id="Path_713" data-name="Path 713" d="M689.605,509.477c1.265,3.751-5.27-5.722-14.471-5.75-8.029-.026-15.554,9.72-14.52,5.858,1.156-4.319,5.078-9.5,14.182-9.894A14.5,14.5,0,0,1,689.605,509.477Z" transform="translate(-611.818 -499.673)" fill="url(#linear-gradient-2)"/>
      </g>
    </g>
  </g>
</svg>
